<!-- mail ikonu -->
<svg id="mail-icon" viewBox="0 0 24 24">
  <path d="M0 0h24v24H0V0z" fill="none"/>
  <path d="M12 5C7.48 5 5 7.48 5 10.49S7.48 15.51 12 15.51 18.52 12.01 18.52 10.5c0-.41-.08-.79-.23-1.08a8.019 8.019 0 00-4.76 0C13.38 10.5 14.9 8.51 12 5zm0 4c-0-.55-0.45-1-1-1s-1 0.45-1 1v0c0 .55 0.45 1 1 1S12 9c0 .55-.45 1-1 1S11 9.55 11 9z"/>
  <path d="M12 4c-4.42 0-6.38 3.19-6.38 6.99S7.58 19 12 19s5.38-3.19 5.38-6.99 1.06-8 1.06-14 0 0-4.92-.5A6.98 6.98 0 0012 4c5-5-6.38-7.19-6.38-12.99 0-0.5 0.5-0.9 1.05-1z"/>
  </svg>

<!-- logo ikonu -->
<svg id="logo-icon" viewBox="0 0 24 24">
  <path d="M0 0h24v24H0V0z" fill="none"/>
  <path d="M12 5C7.48 5 5 7.48 5 10.49S7.48 15.51 12 15.51 18.52 12.01 18.52 10.5c0-.41-.08-.79-.23-1.08a8.019 8.019 0 00-4.76 0C13.38 10.5 14.9 8.51 12 5zm0 4c-0-.55-0.45-1-1-1s-1 0.45-1 1v0c0 .55 0.45 1 1 1S12 9c0 .55-.45 1-1 1S11 9.55 11 9z"/>
  <path d="M12 4c-4.42 0-6.38 3.19-6.38 6.99S7.58 19 12 19s5.38-3.19 5.38-6.99 1.06-8 1.06-14 0 0-4.92-.5A6.98 6.98 0 0012 4c5-5-6.38-7.19-6.38-12.99 0-0.5 0.5-0.9 1.05-1z"/>
  <path d="M12 14.5c-1.65 0-3-1.35-3-3s1.35-3 3-3 3 1.35 3 3-1.35 3-3 3zm0 1.5c-2.76 0-5-2.24-5-5s2.24-5 5-5 5 2.24 5 5-2.24 5-5 5z"/>
</svg>

<!-- icon ikonu -->
<svg id="icon-icon" viewBox="0 0 24 24">
  <path d="M0 0h24v24H0V0z" fill="none"/>
  <path d="M12 3c-1.66 0-3 1.34-3 3v14.66c0 .68.32 1.23.93 1.54l3.58-3.51c.45-.45.61-1.04.61-1.59V7c0-1.66-1.34-3-3-3zm0 15.59c-1.67 0-3-1.33-3-3s1.33-3 3-3 3 1.33 3 3-1.33 3-3 3z"/>
  <path d="M12 5c-5.53 0-10 4.47-10 10s4.47 10 10 10 10-4.47 10-10-4.47-10-10-10zm0 5c-3.14 0-5.66 2.52-5.66 5.66s2.52 5.66 5.66 5.66 5.66-2.52 5.66-5.66-2.52-5.66-5.66-5.66z"/>
</svg>
