<?xml version="1.0" encoding="utf-8"?>
<!-- Generator: Adobe Illustrator 17.0.0, SVG Export Plug-In . SVG Version: 6.00 Build 0)  -->
<!DOCTYPE svg PUBLIC "-//W3C//DTD SVG 1.1//EN" "http://www.w3.org/Graphics/SVG/1.1/DTD/svg11.dtd">
<svg version="1.1" id="Layer_1" xmlns="http://www.w3.org/2000/svg" xmlns:xlink="http://www.w3.org/1999/xlink" x="0px" y="0px"
	 width="2160px" height="1920px" viewBox="0 0 2160 1920" enable-background="new 0 0 2160 1920" xml:space="preserve">
<linearGradient id="SVGID_1_" gradientUnits="userSpaceOnUse" x1="1104" y1="1062.5006" x2="1104" y2="2992.5007" gradientTransform="matrix(1 0 0 -1 -24 2982.5)">
	<stop  offset="2.790179e-04" style="stop-color:#4A8DDB"/>
	<stop  offset="0.5141" style="stop-color:#1555A1"/>
	<stop  offset="1" style="stop-color:#063C91"/>
</linearGradient>
<rect x="-5" y="-10.001" fill="url(#SVGID_1_)" width="2170" height="1930"/>
<rect x="-7" y="1596.167" fill="#1C467A" width="2170" height="328.5"/>
<g>
	<polygon fill="#E7EDF6" points="987.58,1566.618 975.407,1564.797 980.747,1570.831 	"/>
	<polygon fill="#C3D1E2" points="902.016,1597.933 952.08,1536.304 980.08,1569.304 987.58,1566.618 1012.016,1597.933 	"/>
	<linearGradient id="SVGID_2_" gradientUnits="userSpaceOnUse" x1="947.298" y1="1597.933" x2="947.298" y2="1536.3038">
		<stop  offset="0" style="stop-color:#C6D4E4"/>
		<stop  offset="1" style="stop-color:#CFDBE9"/>
	</linearGradient>
	<polygon fill="url(#SVGID_2_)" points="902.016,1597.933 952.08,1536.304 980.08,1569.304 992.58,1597.933 	"/>
	<polygon fill="#C3D1E2" points="902.016,1597.933 952.08,1536.304 965.08,1597.933 	"/>
	<linearGradient id="SVGID_3_" gradientUnits="userSpaceOnUse" x1="957.0162" y1="1662.683" x2="957.0162" y2="1597.933">
		<stop  offset="0.0044" style="stop-color:#FFFFFF;stop-opacity:0"/>
		<stop  offset="0.9997" style="stop-color:#FFFFFF;stop-opacity:0.4"/>
	</linearGradient>
	<polygon opacity="0.2" fill="url(#SVGID_3_)" points="902.016,1597.933 951.83,1662.683 976.579,1631.683 988.329,1628.183 
		1012.016,1597.933 	"/>
</g>
<g>
	<circle opacity="0.2" fill="#FFFFFF" enable-background="new    " cx="333.025" cy="138.25" r="3.421"/>
	<circle opacity="0.5" fill="#FFFFFF" enable-background="new    " cx="1081.525" cy="262.75" r="2.25"/>
	<circle opacity="0.2" fill="#FFFFFF" enable-background="new    " cx="768.525" cy="200.5" r="2.506"/>
	<circle fill="#FFFFFF" cx="1765.525" cy="200.5" r="1.5"/>
	<circle opacity="0.3" fill="#FFFFFF" enable-background="new    " cx="1500.025" cy="493" r="2.812"/>
	<circle fill="#FFFFFF" cx="169.525" cy="143.5" r="1.5"/>
	<circle opacity="0.6" fill="#FFFFFF" enable-background="new    " cx="858.025" cy="536.5" r="2.062"/>
	<circle opacity="0.4" fill="#FFFFFF" enable-background="new    " cx="490.525" cy="505" r="2.1"/>
	<circle fill="#FFFFFF" cx="319.525" cy="356.5" r="1.595"/>
	<circle opacity="0.5" fill="#FFFFFF" enable-background="new    " cx="21.025" cy="557.5" r="2.396"/>
	<circle opacity="0.7" fill="#FFFFFF" enable-background="new    " cx="427.525" cy="640" r="2.28"/>
	<circle fill="#FFFFFF" cx="588.025" cy="136" r="3.148"/>
	<circle opacity="0.4" fill="#FFFFFF" enable-background="new    " cx="1387.525" cy="641.5" r="2.25"/>
	<circle opacity="0.3" fill="#FFFFFF" enable-background="new    " cx="655.525" cy="604" r="1.5"/>
	<circle opacity="0.3" fill="#FFFFFF" enable-background="new    " cx="2019.025" cy="409" r="2.197"/>
	<circle opacity="0.3" fill="#FFFFFF" enable-background="new    " cx="1911.775" cy="122" r="2.35"/>
	<circle fill="#FFFFFF" cx="1740.025" cy="334.75" r="1.28"/>
	<circle fill="#FFFFFF" cx="1545.025" cy="111.25" r="1.977"/>
	<circle fill="#FFFFFF" cx="1237.525" cy="223.75" r="1.447"/>
	<circle fill="#FFFFFF" cx="802.525" cy="309.25" r="2.576"/>
	<circle fill="#FFFFFF" cx="550.525" cy="250.75" r="3"/>
	<circle fill="#FFFFFF" cx="252.025" cy="460.75" r="0.75"/>
	<circle fill="#FFFFFF" cx="118.525" cy="318.25" r="1.081"/>
	<circle opacity="0.3" fill="#FFFFFF" enable-background="new    " cx="45.025" cy="579.25" r="1.899"/>
	<circle fill="#FFFFFF" cx="1218.775" cy="61.25" r="1.312"/>
	<circle fill="#FFFFFF" cx="615.025" cy="714.25" r="2.071"/>
	<circle opacity="0.4" fill="#FFFFFF" enable-background="new    " cx="511.525" cy="777.25" r="2.809"/>
	<circle opacity="0.7" fill="#FFFFFF" enable-background="new    " cx="895.525" cy="160.25" r="1.312"/>
	<circle opacity="0.2" fill="#FFFFFF" enable-background="new    " cx="228.025" cy="742.75" r="0.75"/>
	<circle opacity="0.6" fill="#FFFFFF" enable-background="new    " cx="426.025" cy="813.25" r="1.285"/>
	<circle opacity="0.6" fill="#FFFFFF" enable-background="new    " cx="465.025" cy="774.25" r="1.441"/>
	<circle fill="#FFFFFF" cx="817.525" cy="798.25" r="2.624"/>
	<circle opacity="0.8" fill="#FFFFFF" enable-background="new    " cx="396.025" cy="945.25" r="1.043"/>
	<circle fill="#FFFFFF" cx="1704.025" cy="936.25" r="1.969"/>
	<circle opacity="0.8" fill="#FFFFFF" enable-background="new    " cx="1987.525" cy="903.25" r="2.075"/>
	<circle opacity="0.9" fill="#FFFFFF" enable-background="new    " cx="1592.275" cy="726.5" r="1.406"/>
	<circle fill="#FFFFFF" cx="381.025" cy="226.75" r="2.613"/>
	<circle opacity="0.5" fill="#FFFFFF" enable-background="new    " cx="1262.275" cy="887" r="2.109"/>
	<circle opacity="0.4" fill="#FFFFFF" enable-background="new    " cx="1432.525" cy="753.25" r="2.132"/>
	<circle fill="#FFFFFF" cx="1830.025" cy="678.25" r="1.758"/>
	<circle opacity="0.1" fill="#FFFFFF" enable-background="new    " cx="1996.525" cy="759.25" r="0.75"/>
	<circle opacity="0.1" fill="#FFFFFF" enable-background="new    " cx="1998.025" cy="555.25" r="0.75"/>
	<circle opacity="0.3" fill="#FFFFFF" enable-background="new    " cx="1912.525" cy="361.75" r="3.291"/>
	<circle opacity="0.3" fill="#FFFFFF" enable-background="new    " cx="1830.025" cy="492.25" r="2.438"/>
	<circle fill="#FFFFFF" cx="1999.525" cy="69.25" r="1.125"/>
	<circle opacity="0.6" fill="#FFFFFF" enable-background="new    " cx="1885.525" cy="270.5" r="2.062"/>
	<circle fill="#FFFFFF" cx="657.025" cy="462.25" r="2.625"/>
	<circle fill="#FFFFFF" cx="1183.525" cy="459.25" r="1.676"/>
	<circle opacity="0.1" fill="#FFFFFF" enable-background="new    " cx="1170.025" cy="555.25" r="0.75"/>
	<circle opacity="0.3" fill="#FFFFFF" enable-background="new    " cx="1090.525" cy="429.25" r="2.672"/>
	<circle opacity="0.1" fill="#FFFFFF" enable-background="new    " cx="681.025" cy="432.25" r="0.75"/>
	<circle fill="#FFFFFF" cx="735.025" cy="222.25" r="2.625"/>
	<circle fill="#FFFFFF" cx="1570.525" cy="621.25" r="1.141"/>
	<circle fill="#FFFFFF" cx="684.025" cy="427.75" r="1.555"/>
	<circle opacity="0.1" fill="#FFFFFF" enable-background="new    " cx="1474.525" cy="264.25" r="2.25"/>
	<circle fill="#FFFFFF" cx="1557.775" cy="335.5" r="2.25"/>
	<circle opacity="0.3" fill="#FFFFFF" enable-background="new    " cx="1927.525" cy="224.5" r="3.375"/>
	<circle opacity="0.1" fill="#FFFFFF" enable-background="new    " cx="998.275" cy="688.25" r="2.25"/>
	<circle opacity="0.6" fill="#FFFFFF" enable-background="new    " cx="1134.025" cy="534.25" r="2.25"/>
	<circle opacity="0.2" fill="#FFFFFF" enable-background="new    " cx="135.025" cy="676.75" r="3.445"/>
	<circle opacity="0.3" fill="#FFFFFF" enable-background="new    " cx="250.525" cy="577.75" r="2.25"/>
	<circle opacity="0.1" fill="#FFFFFF" enable-background="new    " cx="1239.025" cy="493.75" r="2.25"/>
	<circle opacity="0.3" fill="#FFFFFF" enable-background="new    " cx="1678.525" cy="775.75" r="3.083"/>
	<circle opacity="0.6" fill="#FFFFFF" enable-background="new    " cx="1833.025" cy="61.25" r="2.25"/>
	<circle opacity="0.3" fill="#FFFFFF" enable-background="new    " cx="1236.775" cy="776.5" r="3.249"/>
	<circle opacity="0.4" fill="#FFFFFF" enable-background="new    " cx="2116.525" cy="636.25" r="3.375"/>
	<circle opacity="0.5" fill="#FFFFFF" enable-background="new    " cx="1000.525" cy="97.75" r="2.25"/>
	<circle opacity="0.7" fill="#FFFFFF" enable-background="new    " cx="63.025" cy="226.75" r="2.25"/>
	<circle fill="#FFFFFF" cx="2065.525" cy="141.25" r="2.25"/>
</g>
<g>
	<linearGradient id="SVGID_4_" gradientUnits="userSpaceOnUse" x1="822.3342" y1="1767.4995" x2="822.3342" y2="1611.5005">
		<stop  offset="0" style="stop-color:#7FC0FF;stop-opacity:0"/>
		<stop  offset="0.988" style="stop-color:#EBFFFF;stop-opacity:0.2"/>
	</linearGradient>
	<polygon fill="url(#SVGID_4_)" points="687.39,1627.491 742.116,1707.499 764.116,1708.499 829.616,1767.5 957.278,1625.741 
		813.115,1611.5 	"/>
	<linearGradient id="SVGID_5_" gradientUnits="userSpaceOnUse" x1="806.8655" y1="1738.4998" x2="806.8655" y2="1630.9998">
		<stop  offset="0" style="stop-color:#FFFFFF;stop-opacity:0"/>
		<stop  offset="0.9746" style="stop-color:#FFFFFF;stop-opacity:0.02"/>
		<stop  offset="1" style="stop-color:#FFFFFF;stop-opacity:0.04"/>
	</linearGradient>
	<polygon fill="url(#SVGID_5_)" points="731.615,1631 823.116,1738.5 882.115,1631 	"/>
	<g>
		<polygon fill="#C8D6E6" points="761.003,1563.491 823.253,1497.491 957.278,1625.741 880.115,1633.741 841.503,1563.491 		"/>
		<polygon fill="#C5D3E5" points="761.003,1563.491 823.253,1497.491 839.115,1550.167 880.115,1633.741 841.503,1563.491 		"/>
		<polygon fill="#EBF3FD" points="687.39,1627.491 742.615,1561.991 792.115,1554.491 836.115,1540.991 880.115,1633.741 
			733.615,1633.741 		"/>
		<polygon fill="#D5E0EE" points="687.39,1627.491 742.615,1561.991 791.115,1559.491 836.115,1540.991 880.115,1633.741 
			732.615,1633.741 		"/>
		<polygon fill="#C2D0E1" points="687.39,1627.491 742.615,1561.991 791.115,1559.491 732.615,1633.741 		"/>
	</g>
</g>
<g>
	<linearGradient id="SVGID_6_" gradientUnits="userSpaceOnUse" x1="297.3902" y1="1678.3352" x2="297.3902" y2="1664.3353">
		<stop  offset="0.0056" style="stop-color:#FFFFFF;stop-opacity:0"/>
		<stop  offset="1" style="stop-color:#FFFFFF;stop-opacity:0.3"/>
	</linearGradient>
	<path fill="url(#SVGID_6_)" d="M273.807,1666.006l3.997,7.079l23.917,5.25c0,0,17-3.583,17.083-3.833
		c0.083-0.25,2.17-10.167,2.17-10.167L273.807,1666.006z"/>
	<polygon fill="#C2CFE0" points="273.807,1666.006 276.807,1659.335 287.974,1655.006 315.474,1656.002 320.974,1664.335 
		300.474,1669.835 	"/>
	<polygon fill="#D5E1EE" points="298.808,1659.335 287.974,1655.006 315.474,1656.002 320.974,1664.335 300.474,1669.835 	"/>
	<polygon fill="#E7ECF4" points="276.807,1659.335 287.974,1655.006 315.474,1656.002 299.574,1662.443 	"/>
</g>
<g>
	<linearGradient id="SVGID_7_" gradientUnits="userSpaceOnUse" x1="414.8043" y1="1710.0038" x2="414.8043" y2="1690.0597">
		<stop  offset="0.0026" style="stop-color:#FFFFFF;stop-opacity:0.03"/>
		<stop  offset="0.9945" style="stop-color:#FFFFFF;stop-opacity:0.45"/>
	</linearGradient>
	<polygon fill="url(#SVGID_7_)" points="353.471,1691.393 357.971,1699.726 385.846,1707.754 430.138,1705.254 437.096,1710.004 
		467.596,1707.008 475.221,1697.379 476.138,1690.06 	"/>
	<polygon fill="#D4E0EE" points="353.471,1691.393 357.971,1684.897 389.304,1677.56 425.804,1674.726 461.971,1678.393 
		474.138,1686.226 476.138,1690.06 468.138,1700.56 437.471,1702.726 430.138,1697.893 386.138,1699.726 	"/>
	<polygon fill="#D9E3EF" points="474.138,1686.226 476.138,1690.06 468.138,1700.56 468.346,1686.129 	"/>
	<polygon fill="#C4D2E3" points="439.096,1688.726 437.471,1702.726 430.138,1697.893 433.096,1686.129 	"/>
	<polygon fill="#C0CEDF" points="353.471,1691.393 357.971,1684.897 387.846,1685.754 386.138,1699.726 	"/>
	<polygon fill="#E6EBF2" points="357.971,1684.897 389.304,1677.56 425.804,1674.726 461.971,1678.393 474.138,1686.226 
		468.138,1692.559 438.471,1693.726 432.138,1689.892 387.138,1691.726 	"/>
</g>
</svg>
