<?xml version="1.0" encoding="utf-8"?>
<!-- Generator: Adobe Illustrator 18.1.1, SVG Export Plug-In . SVG Version: 6.00 Build 0)  -->
<!DOCTYPE svg PUBLIC "-//W3C//DTD SVG 1.1//EN" "http://www.w3.org/Graphics/SVG/1.1/DTD/svg11.dtd">
<svg version="1.1" xmlns="http://www.w3.org/2000/svg" xmlns:xlink="http://www.w3.org/1999/xlink" x="0px" y="0px" width="720px" height="1280px"
	 viewBox="0 0 720 1280" style="enable-background:new 0 0 720 1280;" xml:space="preserve">
<g id="BG">
	
		<radialGradient id="SVGID_1_" cx="-52.50416" cy="1476.03076" r="4631.01221" gradientTransform="matrix(0.5 0 0 0.44262 7 822.71442)" gradientUnits="userSpaceOnUse">
		<stop  offset="0" style="stop-color:#C588B4"/>
		<stop  offset="0.78633" style="stop-color:#3260AF"/>
		<stop  offset="1" style="stop-color:#1D2D6A"/>
	</radialGradient>
	<rect style="fill:url(#SVGID_1_);" width="720" height="1280"/>
	
		<radialGradient id="SVGID_2_" cx="-632.50415" cy="1476.03076" r="4631.01221" gradientTransform="matrix(0.5 0 0 0.44262 297 822.71442)" gradientUnits="userSpaceOnUse">
		<stop  offset="0" style="stop-color:#C588B4"/>
		<stop  offset="0.57133" style="stop-color:#3060B2"/>
		<stop  offset="1" style="stop-color:#30203F"/>
	</radialGradient>
	<rect style="fill:url(#SVGID_2_);" width="720" height="1280"/>
</g>
<g id="MT_1_">
	<linearGradient id="SVGID_3_" gradientUnits="userSpaceOnUse" x1="215.02991" y1="1200.00293" x2="215.02991" y2="1119.05383">
		<stop  offset="0" style="stop-color:#413994"/>
		<stop  offset="1" style="stop-color:#7D5F9B"/>
	</linearGradient>
	<path style="fill-rule:evenodd;clip-rule:evenodd;fill:url(#SVGID_3_);" d="M0,1212.15613l430.05981-58.60168
		c-103.61707,0-182.9848-32.68127-277.00336-33.00391C75.61658,1120.28479,34.36572,1135.98743,0,1140.14868V1212.15613z"/>
	<linearGradient id="SVGID_4_" gradientUnits="userSpaceOnUse" x1="360" y1="1235.51013" x2="360" y2="1108.41455">
		<stop  offset="0" style="stop-color:#2C2A77"/>
		<stop  offset="1" style="stop-color:#444B82"/>
	</linearGradient>
	<path style="fill-rule:evenodd;clip-rule:evenodd;fill:url(#SVGID_4_);" d="M720,1280v-173.61743
		c-20.05804-0.40845-40.41199-0.20251-60.64081,0.72705C460.48248,1116.24841,308.4375,1191.43384,0,1191.43384V1280H720z"/>
</g>
<g id="SS">
	<circle style="fill-rule:evenodd;clip-rule:evenodd;fill:#FFFFFF;" cx="215.5" cy="46" r="1.5"/>
	<circle style="fill-rule:evenodd;clip-rule:evenodd;fill:#FFFFFF;" cx="704.5" cy="129" r="1.5"/>
	<circle style="opacity:0.6;fill-rule:evenodd;clip-rule:evenodd;fill:#FFFFFF;" cx="505.83325" cy="87.5" r="1"/>
	<circle style="fill-rule:evenodd;clip-rule:evenodd;fill:#FFFFFF;" cx="106.49999" cy="49.5" r="1"/>
	<circle style="opacity:0.6;fill-rule:evenodd;clip-rule:evenodd;fill:#FFFFFF;" cx="565.5" cy="311.5" r="1"/>
	<circle style="opacity:0.1;fill-rule:evenodd;clip-rule:evenodd;fill:#FFFFFF;" cx="320.5" cy="290.5" r="1"/>
	<circle style="opacity:0.6;fill-rule:evenodd;clip-rule:evenodd;fill:#FFFFFF;" cx="206.5" cy="191.5" r="1"/>
	<circle style="opacity:0.8;fill-rule:evenodd;clip-rule:evenodd;fill:#FFFFFF;" cx="17.49999" cy="325.5" r="1"/>
	<circle style="opacity:0.7;fill-rule:evenodd;clip-rule:evenodd;fill:#FFFFFF;" cx="278.5" cy="380.5" r="1"/>
	<circle style="fill-rule:evenodd;clip-rule:evenodd;fill:#FFFFFF;" cx="385.5" cy="44.5" r="1"/>
	<circle style="opacity:0.1;fill-rule:evenodd;clip-rule:evenodd;fill:#FFFFFF;" cx="430.5" cy="356.5" r="1"/>
	<circle style="fill-rule:evenodd;clip-rule:evenodd;fill:#FFFFFF;" cx="528.5" cy="160" r="0.5"/>
	<circle style="fill-rule:evenodd;clip-rule:evenodd;fill:#FFFFFF;" cx="360.5" cy="121" r="0.5"/>
	<circle style="fill-rule:evenodd;clip-rule:evenodd;fill:#FFFFFF;" cx="161.5" cy="261" r="0.5"/>
	<circle style="fill-rule:evenodd;clip-rule:evenodd;fill:#FFFFFF;" cx="72.49999" cy="166" r="0.5"/>
	<circle style="opacity:0.5;fill-rule:evenodd;clip-rule:evenodd;fill:#FFFFFF;" cx="33.49999" cy="340" r="0.5"/>
	<circle style="fill-rule:evenodd;clip-rule:evenodd;fill:#FFFFFF;" cx="403.5" cy="430" r="0.5"/>
	<circle style="opacity:0.4;fill-rule:evenodd;clip-rule:evenodd;fill:#FFFFFF;" cx="334.5" cy="472" r="0.5"/>
	<circle style="opacity:0.8;fill-rule:evenodd;clip-rule:evenodd;fill:#FFFFFF;" cx="590.5" cy="60.6667" r="0.5"/>
	<circle style="opacity:0.2;fill-rule:evenodd;clip-rule:evenodd;fill:#FFFFFF;" cx="145.5" cy="449" r="0.5"/>
	<circle style="opacity:0.1;fill-rule:evenodd;clip-rule:evenodd;fill:#FFFFFF;" cx="277.5" cy="496" r="0.5"/>
	<circle style="opacity:0.6;fill-rule:evenodd;clip-rule:evenodd;fill:#FFFFFF;" cx="303.5" cy="470" r="0.5"/>
	<circle style="fill-rule:evenodd;clip-rule:evenodd;fill:#FFFFFF;" cx="538.5" cy="486" r="0.5"/>
	<circle style="opacity:0.3;fill-rule:evenodd;clip-rule:evenodd;fill:#FFFFFF;" cx="257.5" cy="584" r="0.5"/>
	<circle style="fill-rule:evenodd;clip-rule:evenodd;fill:#FFFFFF;" cx="247.5" cy="105" r="0.5"/>
	<circle style="fill-rule:evenodd;clip-rule:evenodd;fill:#FFFFFF;" cx="431.5" cy="262" r="0.5"/>
	<circle style="opacity:0.3;fill-rule:evenodd;clip-rule:evenodd;fill:#FFFFFF;" cx="710.5" cy="240" r="0.5"/>
	<circle style="opacity:0.1;fill-rule:evenodd;clip-rule:evenodd;fill:#FFFFFF;" cx="447.5" cy="242" r="0.5"/>
	<circle style="fill-rule:evenodd;clip-rule:evenodd;fill:#FFFFFF;" cx="483.5" cy="102" r="0.5"/>
	<circle style="opacity:0.1;fill-rule:evenodd;clip-rule:evenodd;fill:#FFFFFF;" cx="659" cy="412.66669" r="1.5"/>
	<circle style="opacity:0.2;fill-rule:evenodd;clip-rule:evenodd;fill:#FFFFFF;" cx="83.49999" cy="405" r="1.5"/>
	<circle style="opacity:0.3;fill-rule:evenodd;clip-rule:evenodd;fill:#FFFFFF;" cx="160.5" cy="339" r="1.5"/>
	<circle style="opacity:0.8;fill-rule:evenodd;clip-rule:evenodd;fill:#FFFFFF;" cx="660.5" cy="19" r="1.5"/>
	<circle style="fill-rule:evenodd;clip-rule:evenodd;fill:#FFFFFF;" cx="35.49999" cy="105" r="1.5"/>
</g>
</svg>
